<svg viewBox="0 0 520.67 43.25" xmlns="http://www.w3.org/2000/svg"><g fill="#66bc30" transform="translate(-422.03 -362.27)"><path d="m459 368.64a21.43 21.43 0 0 0 -6.92-4.64 21.23 21.23 0 0 0 -16.79 0 21.5 21.5 0 0 0 -6.91 4.64 21 21 0 0 0 -4.59 6.86 21.38 21.38 0 0 0 0 16.85 21 21 0 0 0 4.59 6.86 21.34 21.34 0 0 0 6.91 4.64 21.81 21.81 0 0 0 16.79 0 18.83 18.83 0 0 0 3.89-2.16l2.59 2.54a2.47 2.47 0 0 0 1.89.81 2.68 2.68 0 0 0 2.65-2.7 2.68 2.68 0 0 0 -.76-1.89l-2.37-2.32a21.14 21.14 0 0 0 3.67-5.78 22.09 22.09 0 0 0 0-16.85 22.12 22.12 0 0 0 -4.64-6.86zm-3.78 26.84a2.67 2.67 0 0 1 -.38.38 4.18 4.18 0 0 0 -.49.38.83.83 0 0 0 -.21.27 16.06 16.06 0 0 1 -10.43 3.72 16.3 16.3 0 1 1 11.51-4.75z"/><path d="m505.79 378.15a2.86 2.86 0 0 0 -.76-2 3 3 0 0 0 -4 0 2.65 2.65 0 0 0 -.76 2v15.23a6 6 0 0 1 -1.08 3.51 6.84 6.84 0 0 1 -2.92 2.48 8.75 8.75 0 0 1 -4.1.92 8.53 8.53 0 0 1 -6.26-2.21c-1.57-1.52-2.33-3.73-2.33-6.65v-13.28a2.77 2.77 0 0 0 -2.75-2.75 2.69 2.69 0 0 0 -2 .81 2.57 2.57 0 0 0 -.75 1.94v13.28a15.33 15.33 0 0 0 1.67 7.51 10.91 10.91 0 0 0 4.64 4.7 12.84 12.84 0 0 0 6.21 1.67h12.64a2.6 2.6 0 0 0 2.54-2.59v-24.57z"/><path d="m524 375.45a2.87 2.87 0 0 0 -2 .75 2.65 2.65 0 0 0 -.76 2v24a2.82 2.82 0 0 0 4.75 2 2.86 2.86 0 0 0 .76-2v-24a2.86 2.86 0 0 0 -.76-2 2.89 2.89 0 0 0 -1.99-.75z"/><path d="m561.94 399.91h-13.72l15.23-20.2a2.75 2.75 0 0 0 .49-1.72 2.26 2.26 0 0 0 -2.54-2.54h-18.4a2.23 2.23 0 0 0 -2.53 2.54 2.21 2.21 0 0 0 2.53 2.53h13.77l-15.28 20.2a2.88 2.88 0 0 0 -.48 1.73 2.21 2.21 0 0 0 2.53 2.54h18.42a2.24 2.24 0 0 0 2.54-2.54 2.26 2.26 0 0 0 -2.56-2.54z"/><path d="m616.66 362.87a2.82 2.82 0 0 0 -2.49 1.4v.11a0 0 0 0 0 0 .05l-14.17 29.11a1.59 1.59 0 0 1 -1.46.92 1.61 1.61 0 0 1 -1.46-.92l-14.52-29.16-.06-.05a2.77 2.77 0 0 0 -2.43-1.52 2.67 2.67 0 0 0 -2 .81 2.77 2.77 0 0 0 -.81 2v36.56a2.77 2.77 0 0 0 2.74 2.82 2.77 2.77 0 0 0 2-.81 2.69 2.69 0 0 0 .81-2v-19.45a1.45 1.45 0 0 1 1.24-1.57 1.52 1.52 0 0 1 1.84.87l9.83 19.65a2.78 2.78 0 0 0 4.91.38.26.26 0 0 0 .11-.16l9.94-20.25a1.44 1.44 0 0 1 1.83-.87 1.46 1.46 0 0 1 1.3 1.57v19.82a2.77 2.77 0 0 0 2.81 2.81 2.65 2.65 0 0 0 1.94-.81 2.73 2.73 0 0 0 .86-2v-36.56a2.77 2.77 0 0 0 -.81-2 2.55 2.55 0 0 0 -1.95-.75z"/><path d="m655.89 377.23a14.78 14.78 0 0 0 -7.5-2 15.09 15.09 0 0 0 -7.62 2 14.27 14.27 0 0 0 -5.34 5.4 15 15 0 0 0 -1.95 7.61 16.37 16.37 0 0 0 1.79 7.67 13.55 13.55 0 0 0 5 5.35 13 13 0 0 0 7.08 2h13.34a2.64 2.64 0 0 0 1.83-.76 2.46 2.46 0 0 0 .76-1.84v-12.42a15.22 15.22 0 0 0 -2-7.61 14.3 14.3 0 0 0 -5.39-5.4zm.81 18.2a9.68 9.68 0 0 1 -3.45 3.62 9.91 9.91 0 0 1 -9.78 0 9.76 9.76 0 0 1 -3.45-3.62 10.18 10.18 0 0 1 -1.24-5.19 10.44 10.44 0 0 1 1.24-5.18 9.76 9.76 0 0 1 3.45-3.62 9.53 9.53 0 0 1 9.78 0 9.68 9.68 0 0 1 3.45 3.62 11.13 11.13 0 0 1 1.25 5.18 10.82 10.82 0 0 1 -1.25 5.19z"/><path d="m696.61 390.89c-1.62-1.4-4.43-2.48-8.31-3.29a22 22 0 0 1 -4.38-1.19 4.57 4.57 0 0 1 -2-1.35 2.84 2.84 0 0 1 -.54-1.84 2.51 2.51 0 0 1 1.57-2.32 9.07 9.07 0 0 1 4.05-.9 12.35 12.35 0 0 1 3.67.54 8.34 8.34 0 0 1 2.86 1.73 3.57 3.57 0 0 0 2.54 1 2.38 2.38 0 0 0 1.51-.43 2.12 2.12 0 0 0 .92-1.67 3.11 3.11 0 0 0 -.7-1.73 11.19 11.19 0 0 0 -4.43-3.13 16.28 16.28 0 0 0 -6.26-1.14 16 16 0 0 0 -5.4.92 10 10 0 0 0 -4.11 2.75 6.61 6.61 0 0 0 -1.56 4.49c0 4.37 3.45 7.23 10.37 8.53a17.06 17.06 0 0 1 5.67 1.89 3.36 3.36 0 0 1 1.67 2.75 3.06 3.06 0 0 1 -1.73 2.76 9 9 0 0 1 -4.75 1 11.63 11.63 0 0 1 -4.37-.81 7.54 7.54 0 0 1 -3.08-2 3 3 0 0 0 -2.05-1 3.21 3.21 0 0 0 -1.89.76 2.41 2.41 0 0 0 -1.08 2.1 2.16 2.16 0 0 0 .7 1.68 12.82 12.82 0 0 0 5.07 3 20.54 20.54 0 0 0 6.92 1.13 15.56 15.56 0 0 0 6.26-1.13 9.2 9.2 0 0 0 4-3.19 8.31 8.31 0 0 0 1.35-4.53 7 7 0 0 0 -2.49-5.38z"/><path d="m723.89 399.59h-1.83a3.55 3.55 0 0 1 -2.92-1.46 5.41 5.41 0 0 1 -1.19-3.62v-13.34h4.59a2.61 2.61 0 0 0 1.84-.65 2.24 2.24 0 0 0 .7-1.62 2.39 2.39 0 0 0 -.7-1.72 2.61 2.61 0 0 0 -1.84-.65h-4.54v-7.78a2.85 2.85 0 0 0 -.75-1.94 2.82 2.82 0 0 0 -2-.76 2.6 2.6 0 0 0 -2.7 2.7v25.76a10.92 10.92 0 0 0 1.24 5.35 9.26 9.26 0 0 0 3.41 3.78 8.94 8.94 0 0 0 4.86 1.35h1a3.22 3.22 0 0 0 2.27-.76 2.41 2.41 0 0 0 .91-1.94 3.08 3.08 0 0 0 -.7-2 2.11 2.11 0 0 0 -1.65-.7z"/><path d="m758.43 377.07a14 14 0 0 0 -7.18-1.84 14.68 14.68 0 0 0 -7.56 1.95 13.73 13.73 0 0 0 -5.19 5.34 15.87 15.87 0 0 0 -1.83 7.72 15.27 15.27 0 0 0 1.94 7.73 13.82 13.82 0 0 0 5.51 5.34 15.94 15.94 0 0 0 7.94 1.89 15.38 15.38 0 0 0 5.18-.92 14.59 14.59 0 0 0 4.59-2.37 2.05 2.05 0 0 0 .87-1.62 2.42 2.42 0 0 0 -1-1.84 2.67 2.67 0 0 0 -1.62-.54 2.83 2.83 0 0 0 -1.78.6 9.1 9.1 0 0 1 -2.91 1.45 9.39 9.39 0 0 1 -3.35.6 10.57 10.57 0 0 1 -7-2.32 9.32 9.32 0 0 1 -3.4-6.1h20.52a2.59 2.59 0 0 0 1.78-.65 2.43 2.43 0 0 0 .7-1.73 17.06 17.06 0 0 0 -1.62-7.56 12.52 12.52 0 0 0 -4.59-5.13zm-16.69 10.75a9.94 9.94 0 0 1 3.08-5.78 9.5 9.5 0 0 1 6.43-2.16 8.14 8.14 0 0 1 5.75 2.12 9.88 9.88 0 0 1 2.7 5.78z"/><path d="m795.92 376a10.14 10.14 0 0 0 -4.48-.87 12.23 12.23 0 0 0 -5.07 1.08 11.82 11.82 0 0 0 -4 3v-1a2.4 2.4 0 0 0 -2.7-2.7 2.81 2.81 0 0 0 -2 .7 2.68 2.68 0 0 0 -.7 2v24.14a2.66 2.66 0 0 0 .7 2 2.8 2.8 0 0 0 2 .65 2.58 2.58 0 0 0 2-.71 2.79 2.79 0 0 0 .7-2v-15.77a5.64 5.64 0 0 1 2.38-4.81 10.11 10.11 0 0 1 6.26-1.78 26.52 26.52 0 0 1 3.51.38 2.32 2.32 0 0 0 .81.11 2.08 2.08 0 0 0 2.16-1.73c0-.11 0-.27 0-.54.05-.87-.49-1.57-1.57-2.15z"/><path d="m825.44 381.6a13.18 13.18 0 0 0 4.59-3.34 7.72 7.72 0 0 0 1.83-5.08 10.08 10.08 0 0 0 -1.51-5.29 10.36 10.36 0 0 0 -4.05-3.73 12.1 12.1 0 0 0 -5.72-1.4 13.18 13.18 0 0 0 -6.27 1.46 11.13 11.13 0 0 0 -4.42 3.94 10 10 0 0 0 -1.62 5.56 2.81 2.81 0 0 0 .7 2 2.1 2.1 0 0 0 1.78.75 2.3 2.3 0 0 0 1.78-.81 3.29 3.29 0 0 0 .7-2.1 5.19 5.19 0 0 1 1-3 7.07 7.07 0 0 1 2.7-2.15 8.46 8.46 0 0 1 3.78-.81 6.27 6.27 0 0 1 4.42 1.61 5.33 5.33 0 0 1 1.73 4 5.17 5.17 0 0 1 -.92 3 6.34 6.34 0 0 1 -2.32 2.16 5.86 5.86 0 0 1 -2.91.76 2.69 2.69 0 0 0 -2 .81 2.61 2.61 0 0 0 -.76 1.94 2.65 2.65 0 0 0 .76 2 2.69 2.69 0 0 0 2 .81 7 7 0 0 1 3.72 1.08 7.37 7.37 0 0 1 2.7 2.91 8.64 8.64 0 0 1 1 4.05 7.12 7.12 0 0 1 -2.16 5.51 8.16 8.16 0 0 1 -5.77 2 8.48 8.48 0 0 1 -4.38-1.08 8.69 8.69 0 0 1 -3.08-3 7.73 7.73 0 0 1 -1.13-4.1 3.22 3.22 0 0 0 -.7-2 2.31 2.31 0 0 0 -1.78-.81 2.18 2.18 0 0 0 -1.79.81 2.94 2.94 0 0 0 -.7 2 12.57 12.57 0 0 0 1.78 6.64 12.72 12.72 0 0 0 4.92 4.64 14.76 14.76 0 0 0 7.18 1.68 13.38 13.38 0 0 0 6.48-1.57 12.67 12.67 0 0 0 4.81-4.43 11.36 11.36 0 0 0 1.78-6.26 12 12 0 0 0 -2-6.81 12.17 12.17 0 0 0 -6.15-4.35z"/><path d="m863.82 365.3a10.29 10.29 0 0 0 -7-2.54 10.72 10.72 0 0 0 -9.56 5.56c-2.27 3.73-3.35 8.91-3.35 15.55s1.08 11.88 3.35 15.55a10.61 10.61 0 0 0 9.56 5.57 10.06 10.06 0 0 0 7-2.54 15.72 15.72 0 0 0 4.43-7.29 38.38 38.38 0 0 0 1.51-11.29 38.84 38.84 0 0 0 -1.51-11.28 16.2 16.2 0 0 0 -4.43-7.29zm-1.51 29.8c-1.24 2.87-3.08 4.27-5.45 4.27s-4.22-1.4-5.46-4.21-1.89-6.59-1.89-11.29a28.55 28.55 0 0 1 1.84-11.23c1.24-2.86 3.08-4.32 5.51-4.32s4.15 1.46 5.45 4.32a28.85 28.85 0 0 1 1.89 11.23 28.23 28.23 0 0 1 -1.89 11.23z"/><path d="m900.29 365.3a10.29 10.29 0 0 0 -7-2.54 10.72 10.72 0 0 0 -9.56 5.56c-2.27 3.73-3.35 8.91-3.35 15.55s1.08 11.88 3.35 15.55a10.61 10.61 0 0 0 9.56 5.57 10.06 10.06 0 0 0 7-2.54 15.72 15.72 0 0 0 4.43-7.29 38.38 38.38 0 0 0 1.51-11.29 38.84 38.84 0 0 0 -1.51-11.28 16.2 16.2 0 0 0 -4.43-7.29zm-1.51 29.8c-1.24 2.87-3.08 4.27-5.45 4.27s-4.22-1.4-5.46-4.21-1.87-6.59-1.87-11.29a28.55 28.55 0 0 1 1.84-11.23c1.24-2.86 3.08-4.32 5.51-4.32s4.15 1.46 5.45 4.32a28.85 28.85 0 0 1 1.89 11.23 28.23 28.23 0 0 1 -1.91 11.23z"/><path d="m941.19 372.59a16.28 16.28 0 0 0 -4.43-7.29 10.32 10.32 0 0 0 -7-2.54 10.7 10.7 0 0 0 -9.55 5.56c-2.27 3.73-3.35 8.91-3.35 15.55s1.08 11.88 3.35 15.55a10.59 10.59 0 0 0 9.55 5.57 10.08 10.08 0 0 0 7-2.54 15.8 15.8 0 0 0 4.43-7.29 38.38 38.38 0 0 0 1.51-11.29 38.84 38.84 0 0 0 -1.51-11.28zm-5.94 22.51c-1.24 2.87-3.08 4.27-5.46 4.27s-4.21-1.4-5.45-4.21-1.89-6.59-1.89-11.29.59-8.37 1.84-11.23 3.07-4.32 5.5-4.32 4.16 1.46 5.46 4.32a28.85 28.85 0 0 1 1.89 11.23 28.23 28.23 0 0 1 -1.89 11.23z"/></g></svg>